<svg xmlns="http://www.w3.org/2000/svg" viewBox="0 0 100 100">
  <defs>
    <linearGradient id="grad5" x1="0%" y1="0%" x2="100%" y2="100%">
      <stop offset="0%" style="stop-color:#3b82f6;stop-opacity:1" />
      <stop offset="100%" style="stop-color:#06b6d4;stop-opacity:1" />
    </linearGradient>
  </defs>

  <!-- Barcode lines -->
  <rect x="20" y="30" width="3" height="40" fill="#3b82f6"/>
  <rect x="26" y="30" width="6" height="40" fill="#3b82f6"/>
  <rect x="35" y="30" width="2" height="40" fill="#3b82f6"/>
  <rect x="40" y="30" width="4" height="40" fill="#3b82f6"/>
  <rect x="47" y="30" width="8" height="40" fill="#3b82f6"/>
  <rect x="58" y="30" width="3" height="40" fill="#3b82f6"/>
  <rect x="64" y="30" width="5" height="40" fill="#3b82f6"/>
  <rect x="72" y="30" width="2" height="40" fill="#3b82f6"/>
  <rect x="77" y="30" width="4" height="40" fill="#3b82f6"/>

  <!-- Scan line -->
  <rect x="15" y="48" width="70" height="4" rx="2" fill="url(#grad5)" opacity="0.7"/>

  <!-- Scanner corners -->
  <polyline points="15,25 15,20 20,20" fill="none" stroke="#06b6d4" stroke-width="2" stroke-linecap="round"/>
  <polyline points="85,25 85,20 80,20" fill="none" stroke="#06b6d4" stroke-width="2" stroke-linecap="round"/>
  <polyline points="15,75 15,80 20,80" fill="none" stroke="#06b6d4" stroke-width="2" stroke-linecap="round"/>
  <polyline points="85,75 85,80 80,80" fill="none" stroke="#06b6d4" stroke-width="2" stroke-linecap="round"/>
</svg>
